%TF.GenerationSoftware,KiCad,Pcbnew,8.0.6*%
%TF.CreationDate,2024-12-07T18:41:02+09:00*%
%TF.ProjectId,ActuKit,41637475-4b69-4742-9e6b-696361645f70,rev?*%
%TF.SameCoordinates,Original*%
%TF.FileFunction,Legend,Top*%
%TF.FilePolarity,Positive*%
%FSLAX46Y46*%
G04 Gerber Fmt 4.6, Leading zero omitted, Abs format (unit mm)*
G04 Created by KiCad (PCBNEW 8.0.6) date 2024-12-07 18:41:02*
%MOMM*%
%LPD*%
G01*
G04 APERTURE LIST*
%ADD10C,0.100000*%
%ADD11C,0.150000*%
%ADD12C,0.120000*%
G04 APERTURE END LIST*
D10*
X130256265Y-102524800D02*
X130399122Y-102572419D01*
X130399122Y-102572419D02*
X130637217Y-102572419D01*
X130637217Y-102572419D02*
X130732455Y-102524800D01*
X130732455Y-102524800D02*
X130780074Y-102477180D01*
X130780074Y-102477180D02*
X130827693Y-102381942D01*
X130827693Y-102381942D02*
X130827693Y-102286704D01*
X130827693Y-102286704D02*
X130780074Y-102191466D01*
X130780074Y-102191466D02*
X130732455Y-102143847D01*
X130732455Y-102143847D02*
X130637217Y-102096228D01*
X130637217Y-102096228D02*
X130446741Y-102048609D01*
X130446741Y-102048609D02*
X130351503Y-102000990D01*
X130351503Y-102000990D02*
X130303884Y-101953371D01*
X130303884Y-101953371D02*
X130256265Y-101858133D01*
X130256265Y-101858133D02*
X130256265Y-101762895D01*
X130256265Y-101762895D02*
X130303884Y-101667657D01*
X130303884Y-101667657D02*
X130351503Y-101620038D01*
X130351503Y-101620038D02*
X130446741Y-101572419D01*
X130446741Y-101572419D02*
X130684836Y-101572419D01*
X130684836Y-101572419D02*
X130827693Y-101620038D01*
X131256265Y-102572419D02*
X131256265Y-101572419D01*
X132256264Y-101620038D02*
X132161026Y-101572419D01*
X132161026Y-101572419D02*
X132018169Y-101572419D01*
X132018169Y-101572419D02*
X131875312Y-101620038D01*
X131875312Y-101620038D02*
X131780074Y-101715276D01*
X131780074Y-101715276D02*
X131732455Y-101810514D01*
X131732455Y-101810514D02*
X131684836Y-102000990D01*
X131684836Y-102000990D02*
X131684836Y-102143847D01*
X131684836Y-102143847D02*
X131732455Y-102334323D01*
X131732455Y-102334323D02*
X131780074Y-102429561D01*
X131780074Y-102429561D02*
X131875312Y-102524800D01*
X131875312Y-102524800D02*
X132018169Y-102572419D01*
X132018169Y-102572419D02*
X132113407Y-102572419D01*
X132113407Y-102572419D02*
X132256264Y-102524800D01*
X132256264Y-102524800D02*
X132303883Y-102477180D01*
X132303883Y-102477180D02*
X132303883Y-102143847D01*
X132303883Y-102143847D02*
X132113407Y-102143847D01*
X158427693Y-114920038D02*
X158332455Y-114872419D01*
X158332455Y-114872419D02*
X158189598Y-114872419D01*
X158189598Y-114872419D02*
X158046741Y-114920038D01*
X158046741Y-114920038D02*
X157951503Y-115015276D01*
X157951503Y-115015276D02*
X157903884Y-115110514D01*
X157903884Y-115110514D02*
X157856265Y-115300990D01*
X157856265Y-115300990D02*
X157856265Y-115443847D01*
X157856265Y-115443847D02*
X157903884Y-115634323D01*
X157903884Y-115634323D02*
X157951503Y-115729561D01*
X157951503Y-115729561D02*
X158046741Y-115824800D01*
X158046741Y-115824800D02*
X158189598Y-115872419D01*
X158189598Y-115872419D02*
X158284836Y-115872419D01*
X158284836Y-115872419D02*
X158427693Y-115824800D01*
X158427693Y-115824800D02*
X158475312Y-115777180D01*
X158475312Y-115777180D02*
X158475312Y-115443847D01*
X158475312Y-115443847D02*
X158284836Y-115443847D01*
X158903884Y-115872419D02*
X158903884Y-114872419D01*
X158903884Y-114872419D02*
X159475312Y-115872419D01*
X159475312Y-115872419D02*
X159475312Y-114872419D01*
X159951503Y-115872419D02*
X159951503Y-114872419D01*
X159951503Y-114872419D02*
X160189598Y-114872419D01*
X160189598Y-114872419D02*
X160332455Y-114920038D01*
X160332455Y-114920038D02*
X160427693Y-115015276D01*
X160427693Y-115015276D02*
X160475312Y-115110514D01*
X160475312Y-115110514D02*
X160522931Y-115300990D01*
X160522931Y-115300990D02*
X160522931Y-115443847D01*
X160522931Y-115443847D02*
X160475312Y-115634323D01*
X160475312Y-115634323D02*
X160427693Y-115729561D01*
X160427693Y-115729561D02*
X160332455Y-115824800D01*
X160332455Y-115824800D02*
X160189598Y-115872419D01*
X160189598Y-115872419D02*
X159951503Y-115872419D01*
X157861027Y-101972419D02*
X158194360Y-102972419D01*
X158194360Y-102972419D02*
X158527693Y-101972419D01*
X158861027Y-102972419D02*
X158861027Y-101972419D01*
X158861027Y-101972419D02*
X159099122Y-101972419D01*
X159099122Y-101972419D02*
X159241979Y-102020038D01*
X159241979Y-102020038D02*
X159337217Y-102115276D01*
X159337217Y-102115276D02*
X159384836Y-102210514D01*
X159384836Y-102210514D02*
X159432455Y-102400990D01*
X159432455Y-102400990D02*
X159432455Y-102543847D01*
X159432455Y-102543847D02*
X159384836Y-102734323D01*
X159384836Y-102734323D02*
X159337217Y-102829561D01*
X159337217Y-102829561D02*
X159241979Y-102924800D01*
X159241979Y-102924800D02*
X159099122Y-102972419D01*
X159099122Y-102972419D02*
X158861027Y-102972419D01*
X159861027Y-102972419D02*
X159861027Y-101972419D01*
X159861027Y-101972419D02*
X160099122Y-101972419D01*
X160099122Y-101972419D02*
X160241979Y-102020038D01*
X160241979Y-102020038D02*
X160337217Y-102115276D01*
X160337217Y-102115276D02*
X160384836Y-102210514D01*
X160384836Y-102210514D02*
X160432455Y-102400990D01*
X160432455Y-102400990D02*
X160432455Y-102543847D01*
X160432455Y-102543847D02*
X160384836Y-102734323D01*
X160384836Y-102734323D02*
X160337217Y-102829561D01*
X160337217Y-102829561D02*
X160241979Y-102924800D01*
X160241979Y-102924800D02*
X160099122Y-102972419D01*
X160099122Y-102972419D02*
X159861027Y-102972419D01*
D11*
X145814819Y-111361904D02*
X146624342Y-111361904D01*
X146624342Y-111361904D02*
X146719580Y-111314285D01*
X146719580Y-111314285D02*
X146767200Y-111266666D01*
X146767200Y-111266666D02*
X146814819Y-111171428D01*
X146814819Y-111171428D02*
X146814819Y-110980952D01*
X146814819Y-110980952D02*
X146767200Y-110885714D01*
X146767200Y-110885714D02*
X146719580Y-110838095D01*
X146719580Y-110838095D02*
X146624342Y-110790476D01*
X146624342Y-110790476D02*
X145814819Y-110790476D01*
X145910057Y-110361904D02*
X145862438Y-110314285D01*
X145862438Y-110314285D02*
X145814819Y-110219047D01*
X145814819Y-110219047D02*
X145814819Y-109980952D01*
X145814819Y-109980952D02*
X145862438Y-109885714D01*
X145862438Y-109885714D02*
X145910057Y-109838095D01*
X145910057Y-109838095D02*
X146005295Y-109790476D01*
X146005295Y-109790476D02*
X146100533Y-109790476D01*
X146100533Y-109790476D02*
X146243390Y-109838095D01*
X146243390Y-109838095D02*
X146814819Y-110409523D01*
X146814819Y-110409523D02*
X146814819Y-109790476D01*
X150738095Y-99504819D02*
X150738095Y-100314342D01*
X150738095Y-100314342D02*
X150785714Y-100409580D01*
X150785714Y-100409580D02*
X150833333Y-100457200D01*
X150833333Y-100457200D02*
X150928571Y-100504819D01*
X150928571Y-100504819D02*
X151119047Y-100504819D01*
X151119047Y-100504819D02*
X151214285Y-100457200D01*
X151214285Y-100457200D02*
X151261904Y-100409580D01*
X151261904Y-100409580D02*
X151309523Y-100314342D01*
X151309523Y-100314342D02*
X151309523Y-99504819D01*
X152309523Y-100504819D02*
X151738095Y-100504819D01*
X152023809Y-100504819D02*
X152023809Y-99504819D01*
X152023809Y-99504819D02*
X151928571Y-99647676D01*
X151928571Y-99647676D02*
X151833333Y-99742914D01*
X151833333Y-99742914D02*
X151738095Y-99790533D01*
X137843333Y-103234819D02*
X137510000Y-102758628D01*
X137271905Y-103234819D02*
X137271905Y-102234819D01*
X137271905Y-102234819D02*
X137652857Y-102234819D01*
X137652857Y-102234819D02*
X137748095Y-102282438D01*
X137748095Y-102282438D02*
X137795714Y-102330057D01*
X137795714Y-102330057D02*
X137843333Y-102425295D01*
X137843333Y-102425295D02*
X137843333Y-102568152D01*
X137843333Y-102568152D02*
X137795714Y-102663390D01*
X137795714Y-102663390D02*
X137748095Y-102711009D01*
X137748095Y-102711009D02*
X137652857Y-102758628D01*
X137652857Y-102758628D02*
X137271905Y-102758628D01*
X138176667Y-102234819D02*
X138795714Y-102234819D01*
X138795714Y-102234819D02*
X138462381Y-102615771D01*
X138462381Y-102615771D02*
X138605238Y-102615771D01*
X138605238Y-102615771D02*
X138700476Y-102663390D01*
X138700476Y-102663390D02*
X138748095Y-102711009D01*
X138748095Y-102711009D02*
X138795714Y-102806247D01*
X138795714Y-102806247D02*
X138795714Y-103044342D01*
X138795714Y-103044342D02*
X138748095Y-103139580D01*
X138748095Y-103139580D02*
X138700476Y-103187200D01*
X138700476Y-103187200D02*
X138605238Y-103234819D01*
X138605238Y-103234819D02*
X138319524Y-103234819D01*
X138319524Y-103234819D02*
X138224286Y-103187200D01*
X138224286Y-103187200D02*
X138176667Y-103139580D01*
X134843333Y-114234819D02*
X134510000Y-113758628D01*
X134271905Y-114234819D02*
X134271905Y-113234819D01*
X134271905Y-113234819D02*
X134652857Y-113234819D01*
X134652857Y-113234819D02*
X134748095Y-113282438D01*
X134748095Y-113282438D02*
X134795714Y-113330057D01*
X134795714Y-113330057D02*
X134843333Y-113425295D01*
X134843333Y-113425295D02*
X134843333Y-113568152D01*
X134843333Y-113568152D02*
X134795714Y-113663390D01*
X134795714Y-113663390D02*
X134748095Y-113711009D01*
X134748095Y-113711009D02*
X134652857Y-113758628D01*
X134652857Y-113758628D02*
X134271905Y-113758628D01*
X135224286Y-113330057D02*
X135271905Y-113282438D01*
X135271905Y-113282438D02*
X135367143Y-113234819D01*
X135367143Y-113234819D02*
X135605238Y-113234819D01*
X135605238Y-113234819D02*
X135700476Y-113282438D01*
X135700476Y-113282438D02*
X135748095Y-113330057D01*
X135748095Y-113330057D02*
X135795714Y-113425295D01*
X135795714Y-113425295D02*
X135795714Y-113520533D01*
X135795714Y-113520533D02*
X135748095Y-113663390D01*
X135748095Y-113663390D02*
X135176667Y-114234819D01*
X135176667Y-114234819D02*
X135795714Y-114234819D01*
X137823333Y-104374819D02*
X137490000Y-103898628D01*
X137251905Y-104374819D02*
X137251905Y-103374819D01*
X137251905Y-103374819D02*
X137632857Y-103374819D01*
X137632857Y-103374819D02*
X137728095Y-103422438D01*
X137728095Y-103422438D02*
X137775714Y-103470057D01*
X137775714Y-103470057D02*
X137823333Y-103565295D01*
X137823333Y-103565295D02*
X137823333Y-103708152D01*
X137823333Y-103708152D02*
X137775714Y-103803390D01*
X137775714Y-103803390D02*
X137728095Y-103851009D01*
X137728095Y-103851009D02*
X137632857Y-103898628D01*
X137632857Y-103898628D02*
X137251905Y-103898628D01*
X138775714Y-104374819D02*
X138204286Y-104374819D01*
X138490000Y-104374819D02*
X138490000Y-103374819D01*
X138490000Y-103374819D02*
X138394762Y-103517676D01*
X138394762Y-103517676D02*
X138299524Y-103612914D01*
X138299524Y-103612914D02*
X138204286Y-103660533D01*
X136334761Y-114150057D02*
X136239523Y-114102438D01*
X136239523Y-114102438D02*
X136144285Y-114007200D01*
X136144285Y-114007200D02*
X136001428Y-113864342D01*
X136001428Y-113864342D02*
X135906190Y-113816723D01*
X135906190Y-113816723D02*
X135810952Y-113816723D01*
X135858571Y-114054819D02*
X135763333Y-114007200D01*
X135763333Y-114007200D02*
X135668095Y-113911961D01*
X135668095Y-113911961D02*
X135620476Y-113721485D01*
X135620476Y-113721485D02*
X135620476Y-113388152D01*
X135620476Y-113388152D02*
X135668095Y-113197676D01*
X135668095Y-113197676D02*
X135763333Y-113102438D01*
X135763333Y-113102438D02*
X135858571Y-113054819D01*
X135858571Y-113054819D02*
X136049047Y-113054819D01*
X136049047Y-113054819D02*
X136144285Y-113102438D01*
X136144285Y-113102438D02*
X136239523Y-113197676D01*
X136239523Y-113197676D02*
X136287142Y-113388152D01*
X136287142Y-113388152D02*
X136287142Y-113721485D01*
X136287142Y-113721485D02*
X136239523Y-113911961D01*
X136239523Y-113911961D02*
X136144285Y-114007200D01*
X136144285Y-114007200D02*
X136049047Y-114054819D01*
X136049047Y-114054819D02*
X135858571Y-114054819D01*
X137239523Y-114054819D02*
X136668095Y-114054819D01*
X136953809Y-114054819D02*
X136953809Y-113054819D01*
X136953809Y-113054819D02*
X136858571Y-113197676D01*
X136858571Y-113197676D02*
X136763333Y-113292914D01*
X136763333Y-113292914D02*
X136668095Y-113340533D01*
D12*
%TO.C,U2*%
X145525000Y-107850000D02*
X145265000Y-107850000D01*
X140075000Y-107850000D02*
X140335000Y-107850000D01*
X145525000Y-110600000D02*
X145525000Y-107850000D01*
X145525000Y-110600000D02*
X145525000Y-113350000D01*
X140075000Y-110600000D02*
X140075000Y-107850000D01*
X140075000Y-110600000D02*
X140075000Y-113350000D01*
X145525000Y-113350000D02*
X145265000Y-113350000D01*
X140075000Y-113350000D02*
X140335000Y-113350000D01*
X145595000Y-107320000D02*
X145265000Y-107080000D01*
X145595000Y-106840000D01*
X145595000Y-107320000D01*
G36*
X145595000Y-107320000D02*
G01*
X145265000Y-107080000D01*
X145595000Y-106840000D01*
X145595000Y-107320000D01*
G37*
%TO.C,U1*%
X146000000Y-102450000D02*
X157000000Y-102450000D01*
X157000000Y-116450000D01*
X146000000Y-116450000D01*
X146000000Y-102450000D01*
%TO.C,R3*%
X135140000Y-104700000D02*
X136090000Y-104700000D01*
X136090000Y-103780000D02*
X136090000Y-105620000D01*
X136090000Y-105620000D02*
X139930000Y-105620000D01*
X139930000Y-103780000D02*
X136090000Y-103780000D01*
X139930000Y-105620000D02*
X139930000Y-103780000D01*
X140880000Y-104700000D02*
X139930000Y-104700000D01*
%TO.C,R2*%
X132140000Y-115700000D02*
X133090000Y-115700000D01*
X133090000Y-114780000D02*
X133090000Y-116620000D01*
X133090000Y-116620000D02*
X136930000Y-116620000D01*
X136930000Y-114780000D02*
X133090000Y-114780000D01*
X136930000Y-116620000D02*
X136930000Y-114780000D01*
X137880000Y-115700000D02*
X136930000Y-115700000D01*
%TO.C,R1*%
X140860000Y-102000000D02*
X139910000Y-102000000D01*
X139910000Y-102920000D02*
X139910000Y-101080000D01*
X139910000Y-101080000D02*
X136070000Y-101080000D01*
X136070000Y-102920000D02*
X139910000Y-102920000D01*
X136070000Y-101080000D02*
X136070000Y-102920000D01*
X135120000Y-102000000D02*
X136070000Y-102000000D01*
%TO.C,Q1*%
X138230000Y-108190000D02*
X134630000Y-108190000D01*
X138268478Y-108201522D02*
G75*
G02*
X136430000Y-112640001I-1838478J-1838478D01*
G01*
X136430000Y-112640000D02*
G75*
G02*
X134591522Y-108201522I0J2600000D01*
G01*
%TD*%
M02*
