%TF.GenerationSoftware,KiCad,Pcbnew,8.0.6*%
%TF.CreationDate,2024-12-07T18:41:01+09:00*%
%TF.ProjectId,ActuKit,41637475-4b69-4742-9e6b-696361645f70,rev?*%
%TF.SameCoordinates,Original*%
%TF.FileFunction,Copper,L1,Top*%
%TF.FilePolarity,Positive*%
%FSLAX46Y46*%
G04 Gerber Fmt 4.6, Leading zero omitted, Abs format (unit mm)*
G04 Created by KiCad (PCBNEW 8.0.6) date 2024-12-07 18:41:01*
%MOMM*%
%LPD*%
G01*
G04 APERTURE LIST*
G04 Aperture macros list*
%AMRoundRect*
0 Rectangle with rounded corners*
0 $1 Rounding radius*
0 $2 $3 $4 $5 $6 $7 $8 $9 X,Y pos of 4 corners*
0 Add a 4 corners polygon primitive as box body*
4,1,4,$2,$3,$4,$5,$6,$7,$8,$9,$2,$3,0*
0 Add four circle primitives for the rounded corners*
1,1,$1+$1,$2,$3*
1,1,$1+$1,$4,$5*
1,1,$1+$1,$6,$7*
1,1,$1+$1,$8,$9*
0 Add four rect primitives between the rounded corners*
20,1,$1+$1,$2,$3,$4,$5,0*
20,1,$1+$1,$4,$5,$6,$7,0*
20,1,$1+$1,$6,$7,$8,$9,0*
20,1,$1+$1,$8,$9,$2,$3,0*%
G04 Aperture macros list end*
%TA.AperFunction,EtchedComponent*%
%ADD10C,0.120000*%
%TD*%
%TA.AperFunction,SMDPad,CuDef*%
%ADD11RoundRect,0.150000X-0.150000X0.650000X-0.150000X-0.650000X0.150000X-0.650000X0.150000X0.650000X0*%
%TD*%
%TA.AperFunction,SMDPad,CuDef*%
%ADD12R,1.000000X2.500000*%
%TD*%
%TA.AperFunction,SMDPad,CuDef*%
%ADD13R,0.500000X1.500000*%
%TD*%
%TA.AperFunction,ComponentPad*%
%ADD14C,1.400000*%
%TD*%
%TA.AperFunction,ComponentPad*%
%ADD15O,1.400000X1.400000*%
%TD*%
%TA.AperFunction,ComponentPad*%
%ADD16R,1.050000X1.500000*%
%TD*%
%TA.AperFunction,ComponentPad*%
%ADD17O,1.050000X1.500000*%
%TD*%
%TA.AperFunction,ComponentPad*%
%ADD18R,1.700000X1.700000*%
%TD*%
%TA.AperFunction,ComponentPad*%
%ADD19O,1.700000X1.700000*%
%TD*%
%TA.AperFunction,Conductor*%
%ADD20C,0.200000*%
%TD*%
G04 APERTURE END LIST*
D10*
%TO.C,U1*%
X149500000Y-108950000D02*
X148500000Y-108950000D01*
X148500000Y-109950000D01*
X149500000Y-109950000D01*
X149500000Y-116400000D01*
X147000000Y-116400000D01*
X147000000Y-113950000D01*
X146050000Y-113950000D01*
X146050000Y-111450000D01*
X147000000Y-111450000D01*
X147000000Y-107450000D01*
X146050000Y-107450000D01*
X146050000Y-104950000D01*
X147000000Y-104950000D01*
X147000000Y-102500000D01*
X149500000Y-102500000D01*
X149500000Y-108950000D01*
%TA.AperFunction,EtchedComponent*%
G36*
X149500000Y-108950000D02*
G01*
X148500000Y-108950000D01*
X148500000Y-109950000D01*
X149500000Y-109950000D01*
X149500000Y-116400000D01*
X147000000Y-116400000D01*
X147000000Y-113950000D01*
X146050000Y-113950000D01*
X146050000Y-111450000D01*
X147000000Y-111450000D01*
X147000000Y-107450000D01*
X146050000Y-107450000D01*
X146050000Y-104950000D01*
X147000000Y-104950000D01*
X147000000Y-102500000D01*
X149500000Y-102500000D01*
X149500000Y-108950000D01*
G37*
%TD.AperFunction*%
X156000000Y-104950000D02*
X156950000Y-104950000D01*
X156950000Y-107450000D01*
X156000000Y-107450000D01*
X156000000Y-111450000D01*
X156950000Y-111450000D01*
X156950000Y-113950000D01*
X156000000Y-113950000D01*
X156000000Y-116400000D01*
X153500000Y-116400000D01*
X153500000Y-109950000D01*
X154500000Y-109950000D01*
X154500000Y-108950000D01*
X153500000Y-108950000D01*
X153500000Y-102500000D01*
X156000000Y-102500000D01*
X156000000Y-104950000D01*
%TA.AperFunction,EtchedComponent*%
G36*
X156000000Y-104950000D02*
G01*
X156950000Y-104950000D01*
X156950000Y-107450000D01*
X156000000Y-107450000D01*
X156000000Y-111450000D01*
X156950000Y-111450000D01*
X156950000Y-113950000D01*
X156000000Y-113950000D01*
X156000000Y-116400000D01*
X153500000Y-116400000D01*
X153500000Y-109950000D01*
X154500000Y-109950000D01*
X154500000Y-108950000D01*
X153500000Y-108950000D01*
X153500000Y-102500000D01*
X156000000Y-102500000D01*
X156000000Y-104950000D01*
G37*
%TD.AperFunction*%
%TD*%
D11*
%TO.P,U2,1,OUT1*%
%TO.N,Net-(U1-INOUT3)*%
X144705000Y-107000000D03*
%TO.P,U2,2,VCC*%
%TO.N,VDD*%
X143435000Y-107000000D03*
%TO.P,U2,3,VCC*%
X142165000Y-107000000D03*
%TO.P,U2,4,FIN*%
%TO.N,Net-(U2-FIN)*%
X140895000Y-107000000D03*
%TO.P,U2,5,RIN*%
%TO.N,Net-(Q1-C)*%
X140895000Y-114200000D03*
%TO.P,U2,6,VREF*%
%TO.N,VDD*%
X142165000Y-114200000D03*
%TO.P,U2,7,OUT2*%
%TO.N,Net-(U1-INOUT4)*%
X143435000Y-114200000D03*
%TO.P,U2,8,GND*%
%TO.N,GNDPWR*%
X144705000Y-114200000D03*
%TD*%
D12*
%TO.P,U1,1,INOUT1*%
%TO.N,unconnected-(U1-INOUT1-Pad1)*%
X150500000Y-109200000D03*
%TO.P,U1,2,INOUT2*%
%TO.N,unconnected-(U1-INOUT2-Pad2)*%
X152500000Y-109700000D03*
D13*
%TO.P,U1,3,INOUT3*%
%TO.N,Net-(U1-INOUT3)*%
X150250000Y-103200000D03*
%TO.P,U1,4,INOUT4*%
%TO.N,Net-(U1-INOUT4)*%
X152750000Y-115700000D03*
%TD*%
D14*
%TO.P,R3,1*%
%TO.N,Net-(Q1-C)*%
X134200000Y-104700000D03*
D15*
%TO.P,R3,2*%
%TO.N,VDD*%
X141820000Y-104700000D03*
%TD*%
D14*
%TO.P,R2,1*%
%TO.N,Net-(J1-Pin_1)*%
X131200000Y-115700000D03*
D15*
%TO.P,R2,2*%
%TO.N,Net-(Q1-B)*%
X138820000Y-115700000D03*
%TD*%
D14*
%TO.P,R1,1*%
%TO.N,Net-(U2-FIN)*%
X141800000Y-102000000D03*
D15*
%TO.P,R1,2*%
%TO.N,Net-(J1-Pin_1)*%
X134180000Y-102000000D03*
%TD*%
D16*
%TO.P,Q1,1,E*%
%TO.N,GNDPWR*%
X137700000Y-110040000D03*
D17*
%TO.P,Q1,2,C*%
%TO.N,Net-(Q1-C)*%
X136430000Y-110040000D03*
%TO.P,Q1,3,B*%
%TO.N,Net-(Q1-B)*%
X135160000Y-110040000D03*
%TD*%
D18*
%TO.P,J2,1,Pin_1*%
%TO.N,GNDPWR*%
X159100000Y-112700000D03*
D19*
%TO.P,J2,2,Pin_2*%
X159100000Y-110160000D03*
%TO.P,J2,3,Pin_3*%
%TO.N,VDD*%
X159100000Y-107620000D03*
%TO.P,J2,4,Pin_4*%
X159100000Y-105080000D03*
%TD*%
D18*
%TO.P,J1,1,Pin_1*%
%TO.N,Net-(J1-Pin_1)*%
X131200000Y-105120000D03*
D19*
%TO.P,J1,2,Pin_2*%
X131200000Y-107660000D03*
%TO.P,J1,3,Pin_3*%
X131200000Y-110200000D03*
%TO.P,J1,4,Pin_4*%
X131200000Y-112740000D03*
%TD*%
D20*
%TO.N,GNDPWR*%
X144705000Y-117795000D02*
X144700000Y-117800000D01*
X144705000Y-114200000D02*
X144705000Y-117795000D01*
X144700000Y-117800000D02*
X141200000Y-117800000D01*
X157500000Y-117800000D02*
X144700000Y-117800000D01*
X137700000Y-112600000D02*
X137700000Y-110040000D01*
X141200000Y-117800000D02*
X140100000Y-116700000D01*
X140100000Y-116700000D02*
X140100000Y-115000000D01*
X159100000Y-116200000D02*
X157500000Y-117800000D01*
X159100000Y-112700000D02*
X159100000Y-116200000D01*
X140100000Y-115000000D02*
X137700000Y-112600000D01*
%TO.N,Net-(Q1-B)*%
X135160000Y-112040000D02*
X135160000Y-110040000D01*
X138820000Y-115700000D02*
X135160000Y-112040000D01*
%TO.N,Net-(J1-Pin_1)*%
X131200000Y-112740000D02*
X131200000Y-115700000D01*
X131200000Y-110200000D02*
X131200000Y-112740000D01*
X131200000Y-107660000D02*
X131200000Y-110200000D01*
X131200000Y-105120000D02*
X131200000Y-107660000D01*
X131200000Y-103000000D02*
X131200000Y-105120000D01*
X132200000Y-102000000D02*
X131200000Y-103000000D01*
X134180000Y-102000000D02*
X132200000Y-102000000D01*
%TO.N,Net-(U2-FIN)*%
X138600000Y-106300000D02*
X139300000Y-107000000D01*
X139100000Y-102000000D02*
X138600000Y-102500000D01*
X141800000Y-102000000D02*
X139100000Y-102000000D01*
X138600000Y-102500000D02*
X138600000Y-106300000D01*
X139300000Y-107000000D02*
X140895000Y-107000000D01*
%TO.N,Net-(Q1-C)*%
X134200000Y-106200000D02*
X136700000Y-108700000D01*
X134200000Y-104700000D02*
X134200000Y-106200000D01*
%TO.N,VDD*%
X142165000Y-107000000D02*
X142165000Y-114200000D01*
%TO.N,Net-(Q1-C)*%
X139600000Y-108700000D02*
X140895000Y-109995000D01*
X136700000Y-108700000D02*
X139600000Y-108700000D01*
X140895000Y-109995000D02*
X140895000Y-114200000D01*
X136430000Y-108970000D02*
X136700000Y-108700000D01*
X136430000Y-110040000D02*
X136430000Y-108970000D01*
%TO.N,Net-(U1-INOUT4)*%
X145500000Y-112900000D02*
X144900000Y-112300000D01*
X145500000Y-116000000D02*
X145500000Y-112900000D01*
X144900000Y-112300000D02*
X143800000Y-112300000D01*
X146500000Y-117000000D02*
X145500000Y-116000000D01*
X152600000Y-117000000D02*
X146500000Y-117000000D01*
X143800000Y-112300000D02*
X143435000Y-112665000D01*
X143435000Y-112665000D02*
X143435000Y-114200000D01*
X152750000Y-116850000D02*
X152600000Y-117000000D01*
X152750000Y-115700000D02*
X152750000Y-116850000D01*
%TO.N,GNDPWR*%
X159100000Y-110160000D02*
X159100000Y-112700000D01*
%TO.N,VDD*%
X159100000Y-105080000D02*
X159100000Y-107620000D01*
X143435000Y-103399314D02*
X143435000Y-107000000D01*
X145434314Y-101400000D02*
X143435000Y-103399314D01*
X157300000Y-101400000D02*
X145434314Y-101400000D01*
X159100000Y-103200000D02*
X157300000Y-101400000D01*
X159100000Y-105080000D02*
X159100000Y-103200000D01*
%TO.N,Net-(U1-INOUT3)*%
X144705000Y-102695000D02*
X144705000Y-107000000D01*
X145600000Y-101800000D02*
X144705000Y-102695000D01*
X150250000Y-102250000D02*
X149800000Y-101800000D01*
X149800000Y-101800000D02*
X145600000Y-101800000D01*
X150250000Y-103200000D02*
X150250000Y-102250000D01*
%TO.N,VDD*%
X143435000Y-106315000D02*
X143435000Y-107000000D01*
X141820000Y-104700000D02*
X143435000Y-106315000D01*
X142165000Y-107000000D02*
X143435000Y-107000000D01*
%TD*%
M02*
